<?xml version="1.0" encoding="UTF-8" standalone="no"?>
<!-- Created with Inkscape (http://www.inkscape.org/) -->

<svg
   width="210mm"
   height="297mm"
   viewBox="0 0 210 297"
   version="1.1"
   id="svg1"
   xml:space="preserve"
   inkscape:version="1.4.2 (f4327f4, 2025-05-13)"
   sodipodi:docname="Game of Life - Front Panel.svg"
   xmlns:inkscape="http://www.inkscape.org/namespaces/inkscape"
   xmlns:sodipodi="http://sodipodi.sourceforge.net/DTD/sodipodi-0.dtd"
   xmlns="http://www.w3.org/2000/svg"
   xmlns:svg="http://www.w3.org/2000/svg"><sodipodi:namedview
     id="namedview1"
     pagecolor="#ffffff"
     bordercolor="#000000"
     borderopacity="0.25"
     inkscape:showpageshadow="2"
     inkscape:pageopacity="0.0"
     inkscape:pagecheckerboard="0"
     inkscape:deskcolor="#d1d1d1"
     inkscape:document-units="mm"
     showgrid="true"
     inkscape:zoom="1.6063169"
     inkscape:cx="334.61641"
     inkscape:cy="395.003"
     inkscape:window-width="1920"
     inkscape:window-height="1009"
     inkscape:window-x="-8"
     inkscape:window-y="-8"
     inkscape:window-maximized="1"
     inkscape:current-layer="layer1"><inkscape:grid
       id="grid1"
       units="mm"
       originx="0"
       originy="0"
       spacingx="0.5"
       spacingy="0.5"
       empcolor="#0099e5"
       empopacity="0.30196078"
       color="#0099e5"
       opacity="0.14901961"
       empspacing="5"
       enabled="true"
       visible="true" /></sodipodi:namedview><defs
     id="defs1"><marker
       id="DistanceX"
       orient="auto"
       refX="0.0"
       refY="0.0"
       style="overflow:visible"><path
         d="M 3,-3 L -3,3 M 0,-5 L  0,5"
         style="stroke:#000000; stroke-width:0.5"
         id="path1" /></marker><pattern
       id="Hatch"
       patternUnits="userSpaceOnUse"
       width="8"
       height="8"
       x="0"
       y="0"><path
         d="M8 4 l-4,4"
         stroke="#000000"
         stroke-width="0.25"
         linecap="square"
         id="path2" /><path
         d="M6 2 l-4,4"
         stroke="#000000"
         stroke-width="0.25"
         linecap="square"
         id="path3" /><path
         d="M4 0 l-4,4"
         stroke="#000000"
         stroke-width="0.25"
         linecap="square"
         id="path4" /></pattern><symbol
       id="*MODEL_SPACE" /><symbol
       id="*PAPER_SPACE" /><clipPath
       clipPathUnits="userSpaceOnUse"
       id="clipPath2"><rect
         style="fill:#fbfbfb;fill-opacity:0.336788;stroke:#000000;stroke-width:0.22602;stroke-linecap:round;stroke-linejoin:round;stroke-miterlimit:4.6;stroke-dasharray:none;stroke-opacity:1"
         id="rect3"
         width="26.629276"
         height="32.685749"
         x="18.83124"
         y="32.807713"
         rx="1.3592496"
         ry="1.8879193" /></clipPath><clipPath
       clipPathUnits="userSpaceOnUse"
       id="clipPath20"><rect
         style="fill:#fbfbfb;fill-opacity:0.336788;stroke:#000000;stroke-width:0.3;stroke-linecap:round;stroke-linejoin:round;stroke-miterlimit:4.6;stroke-dasharray:none;stroke-opacity:1"
         id="rect21"
         width="16.189411"
         height="13.97647"
         x="52.178822"
         y="55.439999"
         rx="2.1402211"
         ry="2.1123748" /></clipPath><marker
       id="DistanceX-1"
       orient="auto"
       refX="0.0"
       refY="0.0"
       style="overflow:visible"><path
         d="M 3,-3 L -3,3 M 0,-5 L  0,5"
         style="stroke:#000000; stroke-width:0.5"
         id="path1-7" /></marker><pattern
       id="Hatch-1"
       patternUnits="userSpaceOnUse"
       width="8"
       height="8"
       x="0"
       y="0"><path
         d="M8 4 l-4,4"
         stroke="#000000"
         stroke-width="0.25"
         linecap="square"
         id="path2-1" /><path
         d="M6 2 l-4,4"
         stroke="#000000"
         stroke-width="0.25"
         linecap="square"
         id="path3-5" /><path
         d="M4 0 l-4,4"
         stroke="#000000"
         stroke-width="0.25"
         linecap="square"
         id="path4-2" /></pattern><symbol
       id="*MODEL_SPACE-7" /><symbol
       id="*PAPER_SPACE-6" /><marker
       id="DistanceX-0"
       orient="auto"
       refX="0.0"
       refY="0.0"
       style="overflow:visible"><path
         d="M 3,-3 L -3,3 M 0,-5 L  0,5"
         style="stroke:#000000; stroke-width:0.5"
         id="path1-9" /></marker><pattern
       id="Hatch-4"
       patternUnits="userSpaceOnUse"
       width="8"
       height="8"
       x="0"
       y="0"><path
         d="M8 4 l-4,4"
         stroke="#000000"
         stroke-width="0.25"
         linecap="square"
         id="path2-8" /><path
         d="M6 2 l-4,4"
         stroke="#000000"
         stroke-width="0.25"
         linecap="square"
         id="path3-8" /><path
         d="M4 0 l-4,4"
         stroke="#000000"
         stroke-width="0.25"
         linecap="square"
         id="path4-24" /></pattern><symbol
       id="*MODEL_SPACE-5" /><symbol
       id="*PAPER_SPACE-5" /></defs><g
     inkscape:groupmode="layer"
     id="layer2"
     inkscape:label="Layer 2"><ellipse
       style="fill:#000000;fill-opacity:1;stroke:#000000;stroke-width:0.399;stroke-linecap:round;stroke-linejoin:round;stroke-miterlimit:4.6;stroke-dasharray:none;stroke-opacity:1"
       id="path19"
       cx="59.34433"
       cy="110.85941"
       rx="3.2736964"
       ry="3.3148751" /><ellipse
       style="fill:#000000;fill-opacity:1;stroke:#000000;stroke-width:0.399;stroke-linecap:round;stroke-linejoin:round;stroke-miterlimit:4.6;stroke-dasharray:none;stroke-opacity:1"
       id="path19-2"
       cx="59.34433"
       cy="124.39153"
       rx="3.2736964"
       ry="3.3148751" /><ellipse
       style="fill:#000000;fill-opacity:1;stroke:#000000;stroke-width:0.399;stroke-linecap:round;stroke-linejoin:round;stroke-miterlimit:4.6;stroke-dasharray:none;stroke-opacity:1"
       id="path19-6"
       cx="51.749729"
       cy="118.45401"
       rx="3.2736964"
       ry="3.3148751" /><ellipse
       style="fill:#000000;fill-opacity:1;stroke:#000000;stroke-width:0.399;stroke-linecap:round;stroke-linejoin:round;stroke-miterlimit:4.6;stroke-dasharray:none;stroke-opacity:1"
       id="path19-1"
       cx="66.938927"
       cy="118.45401"
       rx="3.2736964"
       ry="3.3148751" /><ellipse
       style="fill:#000000;fill-opacity:1;stroke:#000000;stroke-width:0.399;stroke-linecap:round;stroke-linejoin:round;stroke-miterlimit:4.6;stroke-dasharray:none;stroke-opacity:1"
       id="path19-1-9"
       cx="161.93492"
       cy="118.45401"
       rx="3.2736964"
       ry="3.3148751" /><ellipse
       style="fill:#000000;fill-opacity:1;stroke:#000000;stroke-width:0.399;stroke-linecap:round;stroke-linejoin:round;stroke-miterlimit:4.6;stroke-dasharray:none;stroke-opacity:1"
       id="path19-1-2"
       cx="146.74573"
       cy="118.45401"
       rx="3.2736964"
       ry="3.3148751" /></g><g
     inkscape:label="Layer 1"
     inkscape:groupmode="layer"
     id="layer1"><rect
       style="fill:#fefefe;fill-opacity:0;stroke:#000000;stroke-width:0.387508;stroke-linecap:round;stroke-linejoin:round;stroke-miterlimit:4.6;stroke-dasharray:none;stroke-opacity:1"
       id="rect1"
       width="70.987045"
       height="48.421196"
       x="71.348808"
       y="79.899338"
       rx="2.1402802"
       ry="2.0911193" /><text
       xml:space="preserve"
       style="font-size:5.64444px;font-family:'Space Madness';-inkscape-font-specification:'Space Madness';text-align:center;writing-mode:lr-tb;direction:ltr;text-anchor:middle;white-space:pre;inline-size:130.061;display:inline;fill:#000000;fill-opacity:1;stroke:#a4cb2f;stroke-width:0;stroke-linecap:round;stroke-linejoin:round;stroke-miterlimit:4.6;stroke-dasharray:none;stroke-opacity:1"
       x="106.22118"
       y="134.17412"
       id="text19"
       transform="translate(0.57841751,0.85647263)"><tspan
         x="106.22118"
         y="134.17412"
         id="tspan3"><tspan
           style="font-family:'Barcade Bold';-inkscape-font-specification:'Barcade Bold, '"
           id="tspan1">(GAME OF LIFE)</tspan></tspan></text><path
       style="fill:#000000"
       d="m 55.355192,66.291652 v -1.79014 h 1.79014 1.79014 v 1.79014 1.79014 h -1.79014 -1.79014 z m 3.874941,6.5e-5 0.02225,-1.790205 h 1.787348 1.787349 v 1.79014 1.79014 l -1.809598,6.5e-5 -1.809598,6.6e-5 z m 3.830444,-6.5e-5 v -1.79014 h 1.829056 1.829055 v 1.79014 1.79014 h -1.829055 -1.829056 z m 11.441328,0 v -1.79014 h 1.829056 1.829056 v 1.79014 1.79014 h -1.829056 -1.829056 z m 15.332937,0 v -1.79014 h 1.82906 1.82905 v 1.79014 1.79014 h -1.82905 -1.82906 z m 3.89161,0 v -1.79014 h 1.8096 1.8096 v 1.79014 1.79014 h -1.8096 -1.8096 z m 7.549718,0 v -1.79014 h 1.8096 1.8096 v 1.79014 1.79014 h -1.8096 -1.8096 z m 3.89161,0 v -1.79014 h 1.79014 1.79014 v 1.79014 1.79014 h -1.79014 -1.79014 z M 63.060577,62.400043 v -1.79014 h 1.829056 1.829055 v 1.79014 1.79014 h -1.829055 -1.829056 z m 11.441328,0 v -1.79014 h 1.829056 1.829056 v 1.79014 1.79014 h -1.829056 -1.829056 z m 3.891609,0 v -1.79014 h 1.829056 1.829056 v 1.79014 1.79014 H 80.22257 78.393514 Z m 7.54972,0 v -1.79014 h 1.829058 1.82905 v 1.79014 1.79014 h -1.82905 -1.829058 z m 7.783218,0 v -1.79014 l 1.8096,-5.2e-5 1.8096,-5.2e-5 v 1.790067 1.790068 l -1.8096,1.24e-4 -1.8096,1.25e-4 z m 11.441328,0 v -1.79014 h 1.79014 1.79014 v 1.79014 1.79014 h -1.79014 -1.79014 z m 3.89161,0 v -1.79014 h 1.79014 1.79014 v 1.79014 1.79014 h -1.79014 -1.79014 z M 61.017482,60.318107 59.2468,60.295657 V 58.506978 56.7183 h 1.79014 1.79014 v 1.829056 c 0,1.00598 -0.0088,1.820991 -0.01946,1.811134 -0.0107,-0.0099 -0.816265,-0.02803 -1.79014,-0.04038 z m 9.592815,-1.809672 v -1.79014 h 1.829056 1.829056 v 1.79014 1.79014 h -1.829056 -1.829056 z m 7.783217,0 v -1.79014 h 1.829056 1.829056 v 1.79014 1.79014 H 80.22257 78.393514 Z m 15.332938,0 v -1.79014 l 1.8096,-1.7e-5 1.8096,-1.6e-5 v 1.790133 1.790134 l -1.8096,2.3e-5 -1.8096,2.3e-5 z m 7.549718,0 v -1.79014 l 1.8096,-2.6e-5 1.8096,-2.6e-5 v 1.790119 1.79012 l -1.8096,4.6e-5 -1.8096,4.7e-5 z"
       id="path20"
       clip-path="url(#clipPath20)"
       transform="translate(93.622512,25.631807)" /><text
       xml:space="preserve"
       style="font-style:normal;font-variant:normal;font-weight:normal;font-stretch:normal;font-size:4.23333px;font-family:'Barcade Bold';-inkscape-font-specification:'Barcade Bold, ';text-align:center;writing-mode:lr-tb;direction:ltr;text-anchor:middle;fill:#000000;fill-opacity:1;stroke:#000000;stroke-width:0;stroke-linecap:round;stroke-linejoin:round;stroke-miterlimit:4.6;stroke-dasharray:none;stroke-opacity:1"
       x="146.75864"
       y="112.33514"
       id="text21"><tspan
         sodipodi:role="line"
         id="tspan21"
         style="font-style:normal;font-variant:normal;font-weight:normal;font-stretch:normal;font-size:4.23333px;font-family:'Space Madness';-inkscape-font-specification:'Space Madness';fill:#000000;fill-opacity:1;stroke-width:0;stroke-dasharray:none"
         x="146.75864"
         y="112.33514">A</tspan></text><text
       xml:space="preserve"
       style="font-style:normal;font-variant:normal;font-weight:normal;font-stretch:normal;font-size:4.23333px;font-family:'Barcade Bold';-inkscape-font-specification:'Barcade Bold, ';text-align:center;writing-mode:lr-tb;direction:ltr;text-anchor:middle;fill:#000000;fill-opacity:1;stroke:#000000;stroke-width:0;stroke-linecap:round;stroke-linejoin:round;stroke-miterlimit:4.6;stroke-dasharray:none;stroke-opacity:1"
       x="161.94785"
       y="112.33514"
       id="text21-5"><tspan
         sodipodi:role="line"
         id="tspan21-5"
         style="font-style:normal;font-variant:normal;font-weight:normal;font-stretch:normal;font-size:4.23333px;font-family:'Space Madness';-inkscape-font-specification:'Space Madness';fill:#000000;fill-opacity:1;stroke-width:0;stroke-dasharray:none"
         x="161.94785"
         y="112.33514">B</tspan></text><g
       inkscape:label="0"
       id="g19"
       transform="matrix(0.26458333,0,0,0.26458333,44.485329,-156.90519)"><path
         d="m 235.93,987.44768 a 0.25,0.25 0 0 0 -0.5,0 0.25,0.25 0 0 0 0.5,0 z"
         style="fill:none;stroke:#000000"
         id="path5" /><path
         d="M 464.16076,1107.7357 V 896.57348 a 9.6,9.6 0 0 0 -9.6,-9.6 H 16.8 a 9.6,9.6 0 0 0 -9.6,9.6 v 211.16222 a 9.6,9.6 0 0 0 9.6,9.6 h 437.76076 a 9.6,9.6 0 0 0 9.6,-9.6 z"
         style="fill:none;stroke:#000000"
         id="path6" /><path
         d="m 114.816,904.21568 a 4.8,4.8 0 0 0 -9.6,0 4.8,4.8 0 0 0 9.6,0 z"
         style="fill:none;stroke:#000000"
         id="path7" /><path
         d="m 366.336,904.21568 a 4.8,4.8 0 0 0 -9.6,0 4.8,4.8 0 0 0 9.6,0 z"
         style="fill:none;stroke:#000000"
         id="path8" /><path
         d="m 366.144,1067.9917 a 4.8,4.8 0 0 0 -9.6,0 4.8,4.8 0 0 0 9.6,0 z"
         style="fill:none;stroke:#000000"
         id="path9" /><path
         d="m 114.72,1067.9917 a 4.8,4.8 0 0 0 -9.6,0 4.8,4.8 0 0 0 9.6,0 z"
         style="fill:none;stroke:#000000"
         id="path10" /><path
         d="m 21.6,1107.9277 a 4.8,4.8 0 0 0 -9.6,0 4.8,4.8 0 0 0 9.6,0 z"
         style="fill:none;stroke:#000000"
         id="path11" /><path
         d="m 459.36,1107.9277 a 4.8,4.8 0 0 0 -9.6,0 4.8,4.8 0 0 0 9.6,0 z"
         style="fill:none;stroke:#000000"
         id="path12" /><path
         d="M 354.35716,1063.9831 H 117.00284 V 910.91225 h 237.35432 z"
         style="fill:none;stroke:#000000"
         id="path13" /><path
         d="m 62.679685,1012.0237 a 6.519685,6.519685 0 0 0 -13.03937,0 6.519685,6.519685 0 0 0 13.03937,0 z"
         style="fill:none;stroke:#000000"
         id="path14" /><path
         d="m 33.975685,1040.7277 a 6.519685,6.519685 0 0 0 -13.03937,0 6.519685,6.519685 0 0 0 13.03937,0 z"
         style="fill:none;stroke:#000000"
         id="path15" /><path
         d="m 91.383685,1040.7277 a 6.519685,6.519685 0 0 0 -13.03937,0 6.519685,6.519685 0 0 0 13.03937,0 z"
         style="fill:none;stroke:#000000"
         id="path16" /><path
         d="m 62.679685,1069.4317 a 6.519685,6.519685 0 0 0 -13.03937,0 6.519685,6.519685 0 0 0 13.03937,0 z"
         style="fill:none;stroke:#000000"
         id="path17" /><path
         d="m 393.01569,1040.7277 a 6.51969,6.51969 0 0 0 -13.03938,0 6.51969,6.51969 0 0 0 13.03938,0 z"
         style="fill:none;stroke:#000000"
         id="path18" /><path
         d="m 450.42368,1040.7277 a 6.519685,6.519685 0 0 0 -13.03936,0 6.519685,6.519685 0 0 0 13.03936,0 z"
         style="fill:none;stroke:#000000"
         id="path19-17" /></g></g></svg>
